<?xml version="1.0" standalone="no"?>
<!DOCTYPE svg PUBLIC "-//W3C//DTD SVG 20010904//EN"
 "http://www.w3.org/TR/2001/REC-SVG-20010904/DTD/svg10.dtd">
<svg version="1.0" xmlns="http://www.w3.org/2000/svg"
 width="1800.000000pt" height="600.000000pt" viewBox="0 0 1800.000000 600.000000"
 preserveAspectRatio="xMidYMid meet">

<g transform="translate(0.000000,600.000000) scale(0.100000,-0.100000)"
fill="#000000" stroke="none">
<path d="M2700 5733 c-86 -6 -385 -43 -440 -54 -30 -6 -82 -22 -115 -36 -33
-13 -92 -30 -131 -38 -39 -7 -99 -29 -135 -48 -35 -19 -89 -40 -118 -46 -30
-7 -69 -22 -85 -35 -17 -13 -85 -49 -151 -81 -74 -35 -136 -73 -162 -98 -41
-40 -69 -58 -173 -116 -30 -17 -64 -45 -75 -62 -11 -16 -33 -38 -50 -49 -57
-36 -339 -333 -384 -405 -24 -38 -50 -79 -58 -90 -7 -11 -42 -63 -77 -115 -35
-52 -73 -115 -85 -140 -11 -25 -32 -60 -45 -78 -14 -18 -29 -55 -35 -82 -6
-28 -24 -74 -40 -102 -16 -29 -35 -73 -41 -98 -7 -25 -30 -91 -51 -148 -21
-56 -39 -114 -39 -128 0 -14 -11 -78 -24 -142 -13 -64 -29 -163 -36 -219 -13
-98 -14 -103 -37 -103 -21 0 -23 -4 -23 -45 0 -41 2 -45 25 -45 25 0 25 -1 25
-90 0 -89 0 -90 -25 -90 l-25 0 0 -115 c0 -115 0 -115 24 -115 22 0 25 -6 39
-87 9 -49 19 -117 23 -152 3 -35 11 -78 16 -95 5 -17 13 -69 18 -115 7 -63 15
-93 35 -123 14 -21 34 -72 44 -113 11 -41 33 -96 50 -122 18 -26 31 -60 31
-77 0 -36 30 -105 53 -124 9 -8 23 -38 32 -68 11 -37 25 -61 45 -76 18 -13 53
-64 84 -123 56 -105 113 -171 346 -405 250 -249 307 -298 416 -356 58 -31 112
-67 120 -79 16 -25 61 -45 101 -45 13 0 41 -17 66 -39 33 -31 55 -41 101 -50
39 -7 69 -20 91 -39 25 -23 49 -32 104 -40 52 -7 86 -20 122 -43 41 -26 66
-34 127 -40 42 -4 127 -19 187 -33 61 -14 122 -26 138 -26 22 0 27 -4 27 -25
l0 -25 339 0 340 0 3 22 c3 20 13 25 88 39 47 8 107 23 135 33 36 13 65 16
105 11 50 -5 62 -3 138 35 46 22 116 49 157 59 40 10 89 30 107 45 19 14 59
31 89 37 36 8 66 22 90 44 20 18 53 38 74 45 67 22 206 102 226 130 12 15 39
38 62 51 155 87 411 312 491 430 17 26 62 93 100 150 38 57 88 124 112 149 23
25 47 62 54 83 6 21 22 50 34 65 31 37 42 60 51 107 4 23 20 54 40 76 24 26
37 54 45 96 7 32 25 81 40 108 16 28 31 68 35 90 8 45 33 131 64 217 12 32 21
78 21 103 0 25 8 87 18 137 14 78 17 146 15 423 0 193 -6 355 -12 390 -6 33
-16 99 -21 147 -6 54 -22 117 -40 163 -16 41 -34 105 -40 142 -7 39 -23 90
-40 119 -16 28 -35 77 -43 108 -9 31 -29 79 -47 106 -17 27 -38 73 -45 101 -8
28 -25 64 -39 78 -14 14 -48 71 -77 126 -30 58 -71 121 -99 150 -27 28 -71 79
-99 115 -138 177 -205 245 -371 375 -35 28 -90 75 -121 106 -42 42 -86 71
-163 108 -58 28 -110 60 -116 71 -12 23 -51 45 -100 55 -19 4 -53 21 -75 36
-26 19 -62 33 -100 39 -32 5 -75 21 -96 34 -21 14 -59 31 -86 37 -26 6 -93 27
-148 46 -195 68 -661 116 -925 96z m-598 -626 c3 -17 0 -23 -14 -24 -13 -1
-18 5 -18 23 0 31 26 32 32 1z m-482 -228 c0 -17 -62 -70 -75 -65 -32 12 20
73 62 73 7 0 13 -4 13 -8z m243 -710 c-3 -11 -17 -25 -30 -30 -32 -12 -33 -12
-27 6 4 8 11 12 17 8 6 -4 7 -1 2 7 -5 8 -1 18 10 26 23 17 35 10 28 -17z
m1179 -533 c112 -35 183 -79 273 -170 84 -85 95 -102 147 -231 29 -73 32 -90
32 -190 1 -102 -1 -116 -33 -195 -46 -116 -53 -129 -116 -204 -74 -87 -166
-151 -277 -192 -83 -31 -100 -34 -200 -34 -92 0 -117 4 -166 24 -31 13 -68 27
-82 31 -39 12 -139 88 -201 152 -91 95 -124 159 -149 296 l-22 117 22 118 c26
137 54 194 144 292 99 107 186 158 351 206 66 19 178 11 277 -20z m-975 -1045
c17 -11 49 -44 71 -73 22 -29 69 -80 104 -114 164 -158 323 -235 526 -255 192
-20 328 3 487 80 148 72 272 178 364 309 27 39 68 61 113 63 51 2 423 -21 518
-31 47 -6 114 -10 150 -10 66 1 407 -28 665 -55 77 -8 176 -15 220 -15 141 0
193 -31 182 -109 -8 -54 -54 -206 -88 -291 -17 -41 -44 -113 -61 -160 -53
-149 -102 -233 -275 -479 -211 -298 -409 -491 -728 -708 -119 -81 -399 -215
-560 -268 -55 -19 -131 -45 -170 -59 -38 -13 -108 -30 -155 -36 -47 -6 -128
-20 -180 -30 -52 -11 -147 -24 -210 -30 -63 -6 -123 -13 -133 -16 -21 -7 -263
20 -382 41 -44 8 -134 24 -200 35 -247 42 -631 195 -869 346 -132 84 -366 276
-473 388 -130 136 -280 320 -338 416 -16 27 -43 68 -58 92 -83 126 -198 369
-227 478 -6 25 -30 99 -52 164 -36 107 -39 123 -29 156 17 56 33 65 125 67 45
1 151 9 236 17 85 9 209 20 275 25 66 6 176 15 245 20 69 6 224 18 345 26 121
8 274 19 340 24 184 12 188 12 222 -8z"/>
</g>
</svg>
